<?xml version="1.0" encoding="utf-8"?>
<svg xmlns="http://www.w3.org/2000/svg" viewBox="511.997 73.915 901.987 112.73" xmlns:bx="https://boxy-svg.com" width="901.987px" height="112.73px"><defs><filter id="drop-shadow-filter-0" bx:preset="drop-shadow 1 4 4 3 0.5 rgba(0,0,0,0.3)" color-interpolation-filters="sRGB" x="-50%" y="-50%" width="200%" height="200%"><feGaussianBlur in="SourceAlpha" stdDeviation="3"/><feOffset dx="4" dy="4"/><feComponentTransfer result="offsetblur"><feFuncA id="spread-ctrl" type="linear" slope="1"/></feComponentTransfer><feFlood flood-color="rgba(0,0,0,0.3)"/><feComposite in2="offsetblur" operator="in"/><feMerge><feMergeNode/><feMergeNode in="SourceGraphic"/></feMerge></filter><filter id="drop-shadow-filter-1" bx:preset="drop-shadow 1 4 4 3 0.5 rgba(0,0,0,0.3)" color-interpolation-filters="sRGB" x="-50%" y="-50%" width="200%" height="200%"><feGaussianBlur in="SourceAlpha" stdDeviation="3"/><feOffset dx="4" dy="4"/><feComponentTransfer result="offsetblur"><feFuncA id="spread-ctrl" type="linear" slope="1"/></feComponentTransfer><feFlood flood-color="rgba(0,0,0,0.3)"/><feComposite in2="offsetblur" operator="in"/><feMerge><feMergeNode/><feMergeNode in="SourceGraphic"/></feMerge></filter><filter id="drop-shadow-filter-2" bx:preset="drop-shadow 1 4 4 3 0.5 rgba(0,0,0,0.3)" color-interpolation-filters="sRGB" x="-50%" y="-50%" width="200%" height="200%"><feGaussianBlur in="SourceAlpha" stdDeviation="3"/><feOffset dx="4" dy="4"/><feComponentTransfer result="offsetblur"><feFuncA id="spread-ctrl" type="linear" slope="1"/></feComponentTransfer><feFlood flood-color="rgba(0,0,0,0.3)"/><feComposite in2="offsetblur" operator="in"/><feMerge><feMergeNode/><feMergeNode in="SourceGraphic"/></feMerge></filter><filter id="drop-shadow-filter-3" bx:preset="drop-shadow 1 4 4 3 0.5 rgba(0,0,0,0.3)" color-interpolation-filters="sRGB" x="-50%" y="-50%" width="200%" height="200%"><feGaussianBlur in="SourceAlpha" stdDeviation="3"/><feOffset dx="4" dy="4"/><feComponentTransfer result="offsetblur"><feFuncA id="spread-ctrl" type="linear" slope="1"/></feComponentTransfer><feFlood flood-color="rgba(0,0,0,0.3)"/><feComposite in2="offsetblur" operator="in"/><feMerge><feMergeNode/><feMergeNode in="SourceGraphic"/></feMerge></filter><bx:export><bx:file format="svg" path="Sem título.svg"/></bx:export></defs><rect x="564.278" width="799.767" height="83.481" style="fill: rgb(40, 40, 40);" y="88.539" id="background"/><g id="left-d20" transform="matrix(1, 0, 0, 1, -68.667435, 0.000504)" style="filter: url(&quot;#drop-shadow-filter-0&quot;);"><path d="M 629.478 73.914 L 678.292 102.096 L 678.292 158.462 L 629.478 186.644 L 580.664 158.462 L 580.664 102.096 Z" bx:shape="n-gon 629.478 130.279 56.365 56.365 6 0 1@3db8473e" style="fill: rgb(91, 29, 133);"/><path d="M 627.564 79.587 L 589.71 103.74 L 627.564 102.923 L 627.564 79.587 Z M 631.005 79.587 L 631.005 102.923 L 668.794 103.74 L 631.005 79.587 Z M 626.274 106.384 L 586.055 107.266 L 601.541 148.754 L 626.274 106.384 Z M 632.295 106.384 L 657.115 148.754 L 672.427 107.266 L 632.295 106.384 Z M 629.284 107.998 L 604.121 151.055 L 654.468 151.055 L 629.284 107.998 Z M 585.41 115.224 L 585.41 152.476 L 598.744 151.249 L 585.41 115.224 Z M 673.158 115.224 L 659.848 151.249 L 673.158 152.476 L 673.158 115.224 Z M 604.982 154.498 L 629.284 180.972 L 653.545 154.498 L 604.982 154.498 Z M 600.465 154.561 L 588.851 155.614 L 619.177 174.992 L 600.465 154.561 Z M 658.148 154.561 L 639.437 174.992 L 669.717 155.614 L 658.148 154.561 Z" style="stroke-width: 1; fill: rgb(113, 35, 178); transform-box: fill-box; transform-origin: 50% 50%;" transform="matrix(-1, 0, 0, -1, -0.000019, 0.000067)"/><text style="fill: rgb(255, 255, 255); font-family: Arial, sans-serif; font-size: 40.1px; font-weight: 700; white-space: pre; text-anchor: middle;" x="628.423" y="144.005" id="left.life">20</text></g><g id="right-d20" transform="matrix(1, 0, 0, 1, 69, -0.0005)" style="filter: url(&quot;#drop-shadow-filter-1&quot;);"><path d="M 1296.17 73.915 L 1344.984 102.098 L 1344.984 158.462 L 1296.17 186.645 L 1247.356 158.463 L 1247.356 102.098 Z" bx:shape="n-gon 1296.17 130.28 56.365 56.365 6 0 1@84f1fa31" style="fill: rgb(91, 29, 133); stroke-width: 1;"/><path d="M 1294.24 79.586 L 1256.39 103.739 L 1294.24 102.922 L 1294.24 79.586 Z M 1297.68 79.586 L 1297.68 102.922 L 1335.47 103.739 L 1297.68 79.586 Z M 1292.95 106.383 L 1252.73 107.265 L 1268.22 148.753 L 1292.95 106.383 Z M 1298.97 106.383 L 1323.8 148.753 L 1339.11 107.265 L 1298.97 106.383 Z M 1295.96 107.997 L 1270.81 151.054 L 1321.15 151.054 L 1295.96 107.997 Z M 1252.1 115.223 L 1252.1 152.475 L 1265.42 151.248 L 1252.1 115.223 Z M 1339.85 115.223 L 1326.54 151.248 L 1339.85 152.475 L 1339.85 115.223 Z M 1271.66 154.497 L 1295.96 180.971 L 1320.22 154.497 L 1271.66 154.497 Z M 1267.14 154.56 L 1255.54 155.613 L 1285.86 174.991 L 1267.14 154.56 Z M 1324.84 154.56 L 1306.12 174.991 L 1336.39 155.613 L 1324.84 154.56 Z" style="stroke-width: 1; fill: rgb(113, 35, 178); transform-origin: 1295.96px 130.279px;" transform="matrix(-1, 0, 0, -1, 0.000178, 0.000023)"/><text style="fill: rgb(255, 255, 255); font-family: Arial, sans-serif; font-size: 40.1px; font-weight: 700; white-space: pre; text-anchor: middle; stroke-width: 1;" x="1295.11" y="144.005" id="right.life">20</text></g><text style="fill: rgb(255, 255, 255); font-family: Arial, sans-serif; font-size: 38px; font-weight: 700; text-anchor: middle; text-transform: lowercase; white-space: pre;" x="961.39" y="143.389" id="x">x</text><g id="left-d6"><rect x="886.406" y="103.418" width="53.724" height="53.724" style="stroke: rgb(91, 29, 133); fill: rgb(113, 35, 178); stroke-width: 3px; filter: url(&quot;#drop-shadow-filter-2&quot;);" rx="7.169" ry="7.169" id="left-d6-bg"/><text style="fill: rgb(255, 255, 255); font-family: Arial, sans-serif; font-size: 40px; font-weight: 700; white-space: pre; text-anchor: middle;" x="912.428" y="145.483" id="left.wins">0</text></g><g id="right-d6"><rect x="981.23" y="103.418" width="53.724" height="53.724" style="stroke: rgb(91, 29, 133); fill: rgb(113, 35, 178); stroke-width: 3; filter: url(&quot;#drop-shadow-filter-3&quot;);" rx="7.169" ry="7.169" id="right-d6-bg"/><text style="fill: rgb(255, 255, 255); font-family: Arial, sans-serif; font-size: 40px; font-weight: 700; white-space: pre; text-anchor: middle; stroke-width: 1;" x="1007.93" y="145.482" id="right.wins">0</text></g><text style="fill: rgb(255, 255, 255); font-family: Arial, sans-serif; font-size: 28px; font-weight: 700; white-space: pre;" x="626.805" y="124.143" id="left.name">Player 1</text><text style="fill: rgb(120, 120, 120); font-family: Arial, sans-serif; font-size: 28px; white-space: pre;" x="625.78" y="154.78" id="left.deck">Deckname</text><text style="fill: rgb(255, 255, 255); font-family: Arial, sans-serif; font-size: 28px; font-weight: 700; white-space: pre; stroke-width: 1; text-anchor: end;" x="1299.38" y="124.254" id="right.name">Player 2</text><text style="fill: rgb(120, 120, 120); font-family: Arial, sans-serif; font-size: 28px; white-space: pre; stroke-width: 1; text-anchor: end;" x="1298.35" y="154.891" id="right.deck">Deckname</text></svg>