<svg version="1.2" xmlns="http://www.w3.org/2000/svg" viewBox="0 0 512 512" width="512" height="512">
	<path class="s0" d="m209.96 488.2l-121.25-46.62c-11.31-4.34-11.64-12.08-0.79-17.29l116.88 44.95c15.02 5.77 37.23 4.92 51.77-1.96l161.53-76.6c10.01 4.43 9.86 11.81-0.67 16.79l-167 79.2c-10.98 5.19-29.13 5.9-40.47 1.53zm0-32.37l-121.25-46.62c-9.62-3.69-11.3-9.85-4.9-14.81l120.99 46.52c15.02 5.77 37.23 4.92 51.77-1.96l165.4-78.44c5.85 4.42 4.38 10.36-4.55 14.58l-166.99 79.2c-10.98 5.19-29.13 5.9-40.47 1.53zm0-28.31l-121.25-46.63c-9.62-3.69-11.3-9.85-4.9-14.81l120.99 46.52c15.03 5.77 37.23 4.92 51.77-1.96l165.4-78.44c5.85 4.42 4.38 10.36-4.54 14.58l-167 79.2c-10.98 5.2-29.13 5.9-40.47 1.54zm0-28.32l-121.25-46.63c-9.62-3.69-11.3-9.85-4.9-14.81l120.99 46.52c15.03 5.78 37.23 4.92 51.77-1.96l165.4-78.44c5.85 4.43 4.38 10.37-4.54 14.59l-167 79.19c-10.98 5.2-29.13 5.9-40.48 1.54zm0-28.32l-121.24-46.62c-11.35-4.36-11.64-12.15-0.66-17.35l87.24-41.38 34.82 18.32c15.37 8.09 37.94 7.06 52.5-2.39l65.75-42.67 88.4 34.01c11.34 4.36 11.65 12.16 0.66 17.35l-166.99 79.2c-10.98 5.19-29.13 5.9-40.48 1.53zm6.85-99.73l-123.36-64.93c-10.77-5.67-11.22-15.65-1.02-22.27l105.11-68.23h25.85l0.01 64.97h58.67v-64.97h50.14l-27.49-41.39 118.91 62.59c10.77 5.67 11.21 15.64 1.02 22.27l-169.84 110.23c-10.2 6.62-27.23 7.4-38 1.73zm21.64-105.53v-64.95h-34.84l49.13-79.74 49.12 79.74h-34.85v64.95z"/>
</svg>