<svg version="1.2" xmlns="http://www.w3.org/2000/svg" viewBox="0 0 512 512">
	<path class="s0" d="m283.24 22c-5.67-0.03-12.75 1.52-20.51 6.81-61.02 42.84-123.1 83.94-186.1 123.82-11.19 7.26-10.7 18.21 1.12 24.43l141.29 74.37c5.9 3.11 24.59 2.25 35.79-5.01l186.37-120.97c11.2-7.27 10.7-18.22-1.11-24.44-49.02-25.8-94.13-49.51-143.3-75.57 0 0-5.27-3.4-13.55-3.44zm52.3 190.81l-72.14 46.83c-15.98 10.37-40.75 11.5-57.61 2.62l-38.22-20.11-95.73 45.41c-12.06 5.71-11.74 14.26 0.72 19.04l133.05 51.16c12.46 4.8 32.37 4.02 44.42-1.68l183.26-86.91c12.05-5.7 11.72-14.26-0.73-19.04 0 0-97.02-37.32-97.02-37.32zm102.74 71.43l-181.51 86.08c-15.96 7.55-40.33 8.49-56.82 2.15l-132.77-51.05c-7.02 5.44-5.18 12.2 5.38 16.25l133.05 51.17c12.46 4.79 32.37 4.02 44.42-1.68l183.26-86.91c9.79-4.63 11.41-11.15 4.99-16.01zm0 31.08l-181.51 86.08c-15.96 7.54-40.33 8.48-56.82 2.15l-132.77-51.06c-7.02 5.45-5.18 12.21 5.38 16.26l133.05 51.17c12.46 4.78 32.37 4.01 44.42-1.69l183.26-86.91c9.79-4.63 11.41-11.16 4.99-16zm-0.01 31.08l-181.5 86.07c-15.96 7.55-40.33 8.49-56.82 2.15l-132.77-51.05c-7.02 5.45-5.18 12.21 5.38 16.25l133.05 51.17c12.46 4.79 32.37 4.02 44.42-1.69l183.26-86.9c9.79-4.63 11.41-11.16 4.98-16zm-4.24 33.09l-177.26 84.06c-15.96 7.55-40.33 8.49-56.82 2.15l-128.26-49.32c-11.91 5.71-11.54 14.21 0.87 18.97l133.05 51.16c12.46 4.79 32.37 4.02 44.42-1.68l183.26-86.91c11.56-5.46 11.73-13.57 0.74-18.43z"/>
</svg>