<svg version="1.2" xmlns="http://www.w3.org/2000/svg" viewBox="0 0 800 800" width="800" height="800">
	<style>
		.s0 { fill: #ffffff } 
	</style>
	<g>
		<path class="s0" d="m799.34 394.09c-0.63-2.74-1.26-4.27-1.82-5.7-1.14-2.65-2.23-4.66-3.5-6.93q-7.06-12.26-22.57-33.15c-15.43-20.74-36.67-47.01-60.74-72.95-24.09-25.93-50.81-51.46-78.01-70.74-38.48-27.23-75.89-48.4-114.21-62.79-38.29-14.4-77.48-21.88-118.49-21.85-41.01-0.03-80.2 7.45-118.49 21.85-38.33 14.39-75.73 35.56-114.21 62.77-40.46 28.77-80.31 71.46-111.09 108.53-15.35 18.55-28.29 35.63-37.62 48.95-4.69 6.67-8.44 12.38-11.33 17.2-1.46 2.45-2.69 4.64-3.86 7.09-0.59 1.25-1.16 2.53-1.79 4.34-0.31 0.91-0.65 1.97-0.95 3.38-0.3 1.42-0.65 3.18-0.66 5.91 0.01 2.72 0.36 4.49 0.66 5.91 0.61 2.74 1.26 4.26 1.82 5.69 1.14 2.66 2.23 4.67 3.5 6.93 4.7 8.17 12.24 19.24 22.57 33.16 15.41 20.74 36.67 47.03 60.74 72.96 24.09 25.93 50.81 51.45 78.01 70.73 38.48 27.23 75.88 48.39 114.21 62.79 38.29 14.39 77.48 21.88 118.49 21.85 41.01 0.03 80.2-7.46 118.49-21.85 38.32-14.4 75.73-35.56 114.21-62.77 40.46-28.77 80.31-71.46 111.09-108.54 15.35-18.54 28.29-35.62 37.62-48.94 4.69-6.69 8.44-12.39 11.34-17.22 1.45-2.45 2.68-4.63 3.85-7.07 0.58-1.25 1.16-2.53 1.79-4.35 0.31-0.91 0.65-1.96 0.96-3.37 0.29-1.43 0.64-3.19 0.65-5.91-0.01-2.73-0.36-4.49-0.66-5.91zm-399.34 195.73c-104.85 0-189.82-84.98-189.82-189.82 0-104.81 84.97-189.82 189.82-189.82 104.85 0 189.82 85.01 189.82 189.82 0 104.84-84.97 189.82-189.82 189.82z"/>
		<path class="s0" d="m447.52 391.22c-9.96 1.83-20.16-1.7-26.82-9.32-6.67-7.63-8.82-18.19-5.67-27.83l12.36-37.8c-8.63-2.82-17.81-4.37-27.39-4.37-48.67 0-88.11 39.42-88.11 88.1 0 48.67 39.44 88.12 88.11 88.12 48.67 0 88.11-39.45 88.11-88.12 0-5.46-0.57-10.8-1.52-15.99z"/>
	</g>
</svg>