<svg version="1.2" xmlns="http://www.w3.org/2000/svg" viewBox="0 0 500 500" width="500" height="500">
	<style>
		.s0 { fill: #ffffff } 
		.s1 { fill: #3a0257 } 
		.s2 { fill: #9617d7 } 
	</style>
	<path id="Shape 1" fill-rule="evenodd" class="s0" d="m250 500c-138.25 0-250-111.75-250-250 0-138.25 111.75-250 250-250 138.25 0 250 111.75 250 250 0 138.25-111.75 250-250 250z"/>
	<path class="s1" d="m252.7 438.69c0 0 80.14-68.33 117-99.52 43.72-36.99 47.05-68.86 47.05-68.86l-33.8-54.73-160.97-154.53-8.04 1.61c0 0-24.15 22.7-94.97 143.26 0 0-49.26 52.15-37.03 72.43 0 0 22.86 45.03 60.14 75.74 82.54 68.01 110.62 84.6 110.62 84.6z"/>
	<path class="s2" d="m254.18 440.93c0 0 99.31-129.58 136.82-149.7l20.92-11.27c0 0 19.8-19.96-6.43-43.46 0 0-28.01-26.4-43.47-70.82 0 0-21.08-58.11-69.21-80.49 0 0-49.42-34.92-80.48-22.53l136.82 135.21c0 0 45.39 44.11 46.68 48.29 0 0 21.08 20.28 12.87 28.98 0 0-5.47 4.82-27.36 12.87 0 0-77.26 61.17-123.94 133.6 0 0-12.72 14.81-3.22 19.32zm-173.85-172.23c0 0 43.79-13.52 57.95 28.97 0 0 15.62 39.76 54.73 56.34l-6.44-14.49 53.12 43.46c0 0-69.05-24.95-111.07-59.56 0 0-37.18-27.52-43.46-41.85 0 0-3.7-4.83-4.83-12.87z"/>
</svg>