<svg version="1.2" xmlns="http://www.w3.org/2000/svg" viewBox="0 0 691 418" width="691" height="418">
	<style>
		.s0 { fill: #3a0257 } 
		.s1 { fill: #9617d7 } 
		.s2 { fill: #e6a769 } 
		.s3 { fill: #eeb47b } 
		.s4 { fill: #e3a567 } 
	</style>
	<path class="s0" d="m111 172l-70 79c0 0-149.4 177 124 166l412.4 0.8c0 0 201.8-7.5 66.5-160.8 0 0-6.8-30.5-41.9-53 0 0-84.5-82.1-99-62 0 0-23.6 18.6-31 43l-20 17-7-1 9-29-21-34-100-96-5 1c0 0-15 14.1-59 89 0 0-30.6 32.4-23 45l18 34c0 0-22.4 4.6-26-3l-3-7c0 0-16.6-14.4-20-18 0 0-6.1-12.8-27-23 0 0-47-20.8-77 12z"/>
	<path class="s1" d="m263 210c0 0 14.4 29.9 59 35 0 0 20-0.2 12 31l-12 38c0 0 21.7 69.6 13 103h-32c0 0-8.8-64-17-97 0 0-12.5-71-49-117 0 0 15.8 9.5 26 7zm76 207h26c0 0-11.1-47.9 18-100 0 0 29.3-74.6 69-117l-6-2-65 55c0 0-52.4 100.5-42 164zm14-139c0 0 61.7-80.5 85-93l13-7c0 0 12.3-12.4-4-27 0 0-17.4-16.4-27-44 0 0-13.1-36.1-43-50 0 0-30.7-21.7-50-14l85 84c0 0 28.2 27.4 29 30 0 0 13.1 12.6 8 18 0 0-3.4 3-17 8 0 0-48 38-77 83 0 0-7.9 9.2-2 12zm-108-107c0 0 27.2-8.4 36 18 0 0 9.7 24.7 34 35l-4-9 33 27c0 0-42.9-15.5-69-37 0 0-23.1-17.1-27-26 0 0-2.3-3-3-8z"/>
	<path class="s2" d="m168 122l22 36c0 0 9 35.2-27 105 0 0-44-28.2-52-89l-1-31 43-27z"/>
	<path class="s3" d="m80 140c0 0 15.5-2.9 33 5 0 0 21.9 7.4 26 3 0 0 16.7-3.7 4-20 0 0 22.4 9.7 34-15l11-22c0 0 4.8-6-1-27 0 0 0.5-22.1 2-27 0 0 3.2-14.4-11-11 0 0-12.7 7.8-14 21l-1 18c0 0-29.2-14.9-42-34 0 0-24.2-1.9-17 15 0 0 1.8 5.8 0 10 0 0-1.7 7.3-24-6l-4 23 14 9c0 0 4.2 7-6 5l-21-5 8 19-2 6 14 5c0 0 6.3 4.2-2 7l-13 7 7 10z"/>
	<path class="s4" d="m131 96c0 0-15.8 29.3 16 33 0 0 15.3-0.5 32-24 0 0-47.3 28.4-48-9zm-21-39c0 0 23.3 6.1 14-18 0 0-2.1-8-11-17l-21-20c0 0-15.5-4.5-14 12 0 0 4.1 12.3 20 26 0 0 12.5 12.2 12 17zm-48 8c0 0-19-9.2-10-22 0 0 6.2-5.1 23 4l23 14c0 0 8.7 6.8 1 15 0 0-7.1 9.3-19 0 0 0-14.5-9.2-18-11zm-3 39c0 0-21.6-7.7-12-23 0 0 12.5-3.4 24 4l13 7c0 0 8.7 7.3 1 15 0 0-2.9 5.1-26-3zm14 39l16-8c0 0 7.6-3.7-3-9l-16-1c0 0-14.7 7.4-12 14 0 0-0.3 7.7 15 4z"/>
	<path class="s2" d="m509 121.6l-22 36c0 0-9 35.2 27 105 0 0 44-28.3 52-89l1-31-43-27z"/>
	<path class="s3" d="m597 139.6c0 0-15.5-3-33 5 0 0-21.9 7.3-26 3 0 0-16.8-3.8-4-20 0 0-22.4 9.7-34-15l-11-22c0 0-4.8-6.1 1-27 0 0-0.5-22.2-2-27 0 0-3.2-14.4 11-11 0 0 12.7 7.8 14 21l1 18c0 0 29.2-15 42-34 0 0 24.2-2 17 15 0 0-1.8 5.8 0 10 0 0 1.7 7.2 24-6l4 23-14 9c0 0-4.2 6.9 6 5l21-5-8 19 2 6-14 5c0 0-6.3 4.1 2 7l13 7-7 10z"/>
	<path class="s4" d="m546 95.6c0 0 15.8 29.2-16 33 0 0-15.3-0.5-32-24 0 0 47.3 28.4 48-9zm21-39c0 0-23.3 6-14-18 0 0 2.1-8.1 11-17l21-20c0 0 15.5-4.5 14 12 0 0-4.1 12.3-20 26 0 0-12.5 12.1-12 17zm48 8c0 0 19-9.3 10-22 0 0-6.2-5.2-23 4l-23 14c0 0-8.7 6.8-1 15 0 0 7.1 9.2 19 0 0 0 14.5-9.3 18-11zm3 39c0 0 21.6-7.7 12-23 0 0-12.5-3.4-24 4l-13 7c0 0-8.6 7.2-1 15 0 0 2.9 5 26-3zm-14 39l-16-8c0 0-7.6-3.8 3-9l16-1c0 0 14.7 7.4 12 14 0 0 0.3 7.7-15 4z"/>
</svg>